<?xml version="1.0" encoding="UTF-8"?>
<svg id="b" data-name="Layer 2" xmlns="http://www.w3.org/2000/svg" viewBox="0 0 926.3 402.45">
  <g id="c" data-name="Layer 1" fill="white">
    <g id="d" data-name="Logo">
      <g id="e" data-name="Horns">
        <path d="M17.63,30.78c56.56-64.66,42.3-7.52,40.09-2.81-12.94,27.55,2.59,66.61,23.24,62.34,67.22-13.9,75.82,8.51,25.7,57.11-13.25,12.85-52.26-8.38-67.93-19.61-3.26-2.34-69.5-41.7-21.1-97.03Z"/>
        <path d="M442.25,30.61c-56.56-64.66-42.3-7.52-40.09-2.81,12.94,27.55-2.59,66.61-23.24,62.34-67.22-13.9-75.82,8.51-25.7,57.11,13.25,12.85,52.26-8.38,67.93-19.61,3.26-2.34,69.5-41.7,21.1-97.03Z"/>
      </g>
      <g id="f" data-name="Head">
        <g>
          <path d="M206.13,229.33c-5.05,9.08,11.39,62.29,14.92,75.31,1.98,3.54,2.1-3.5,4.02-4.31v13.9c0,.26-2.29,3.96-2.69,4.41-.59.66-15.7-29.4-17.42-30.45-3.39-2.06-3.17,3.97-4.58,5.66-4.67,5.6-7-.4-8.55-4.36-3.94-10.04-6.61-20.1-11.51-29.91-3.31-6.64-5.37-10.85-11.52-15.11-7.61-5.28-19.25-10.39-25.96-16.05-1.79-1.51-4.67-10.11-5.3-12.45-3.71-13.87-3.88-21.68,13.24-6.14,4.31,3.91,27.38,21.2,31.7,24.51,8.18,6.19,9.68-5.01,10.33-5.01h13.31Z"/>
          <path d="M225.7,339.09s1.9,12.17,1.74,14.8c-.56,9-1.81,41.99-7.16,46.09-6.06,4.65-9.15,2.13-13.86-2.6-13.12-13.19-15.52-38.14-14.49-55.96,1.03-17.94,7.38-17.41,8.86-3.54.67,6.34,2.94,48.06,12.16,49.44,2.31.34,6.2-11.29,6.63-13.47,1.14-5.76,5.97-34.7,6.12-34.75Z"/>
          <g>
            <path d="M250.52,229.33c5.05,9.08-11.39,62.29-14.92,75.31-1.98,3.54-2.1-3.5-4.02-4.31v13.9c0,.26,2.29,3.96,2.69,4.41.59.66,15.7-29.4,17.42-30.45,3.39-2.06,3.17,3.97,4.58,5.66,4.67,5.6,7-.4,8.55-4.36,3.94-10.04,6.61-20.1,11.51-29.91,3.31-6.64,5.37-10.85,11.52-15.11,7.61-5.28,19.25-10.39,25.96-16.05,1.79-1.51,4.67-10.11,5.3-12.45,3.71-13.87,3.88-21.68-13.24-6.14-4.31,3.91-27.38,21.2-31.7,24.51-8.18,6.19-9.68-5.01-10.33-5.01h-13.31Z"/>
            <path d="M230.95,339.09s-1.9,12.17-1.74,14.8c.56,9,1.81,41.99,7.16,46.09,6.06,4.65,9.15,2.13,13.86-2.6,13.12-13.19,15.52-38.14,14.49-55.96-1.03-17.94-7.38-17.41-8.86-3.54-.67,6.34-2.94,48.06-12.16,49.44-2.31.34-6.2-11.29-6.63-13.47-1.14-5.76-5.97-34.7-6.12-34.75Z"/>
          </g>
        </g>
        <path d="M282.21,92.91c17.67,16.48,31.13,37.58,44.72,57.34,3.93,5.71,20.39,26.04,20.59,31.52.1,2.74-3.55,7.22-6.32,7.79-6.92,1.42-11.88-5.22-19.83-2.07-5.52,2.18-51.04,33.68-55.17,34.18-2.04.24-14.28.21-15.33-.54-.31-.22-1.56-5.93-2.21-7.39-2.12-4.8-36.36-5.76-38.9,0-.75,1.69-1.67,6.77-1.97,7.2-.85,1.19-15.87,1.03-17.84.05-9.56-4.78-46.57-30.76-52.48-33.31-8.13-3.5-12.8,3.05-19.74,1.99-3.07-.47-6.93-4.9-6.82-7.89.2-5.49,16.66-25.81,20.59-31.52,17.12-24.89,39.3-61.26,68.43-72.39,6.05-2.31,16.7-5.34,23.08-4.72,2.12.21,11.98-.34,17.16,0,14.82.99,31.42,9.83,42.07,19.76Z"/>
      </g>
    </g>
    <g>
      <path d="M309.1,399.38l25.6-145.4h37l-25.6,145.4h-37ZM419.5,399.38l10.2-58.2h-55.8l5.6-31.2h55.8l9.8-56h37l-25.6,145.4h-37Z"/>
      <path d="M522.82,399.38c-26.04,0-42.98-18.62-42.98-43.68,0-34.16,27.72-58.1,60.9-58.1h25.62c26.88,0,43.54,16.94,43.54,41.58,0,33.32-28,60.2-61.46,60.2h-25.62ZM553.06,373.48c16.94,0,30.38-12.46,30.38-28.84,0-12.32-8.4-21.28-21.56-21.28h-25.62c-16.38,0-30.24,12.88-30.24,29.4,0,12.18,8.26,20.72,21.42,20.72h25.62ZM542,289.06c-4.9,0-8.4-2.66-8.4-7.14,0-5.88,5.32-9.66,11.34-9.66,4.76,0,8.26,2.8,8.26,7.14,0,6.02-5.32,9.66-11.2,9.66ZM568.18,289.06c-4.76,0-8.26-2.66-8.26-7.14,0-5.88,5.32-9.66,11.2-9.66,4.9,0,8.4,2.8,8.4,7.14,0,6.02-5.18,9.66-11.34,9.66Z"/>
      <path d="M698.8,399.38l-19.04-27.16h-25.2l3.92-21.7h36.54c9.8,0,16.38-6.58,16.38-16.1,0-6.86-4.2-11.06-11.62-11.06h-49l-13.44,76.02h-25.76l17.92-101.78h74.76c21.28,0,33.18,12.18,33.18,31.22,0,20.16-10.92,34.02-27.02,40.04l25.06,30.52h-36.68Z"/>
      <path d="M795.5,310.19l-15.8,89.2h-35.2l22.2-125.6c2.4-13.4,11-21.8,22.2-21.8,5.4,0,8.8,1.6,13,6.4l73.4,85.2,15.8-91.4h35.2l-22.6,127.4c-2.4,13.4-11.2,21.8-22.2,21.8-5.4,0-9-1.8-13-6.4l-73-84.8Z"/>
    </g>
  </g>
</svg>