<svg xmlns="http://www.w3.org/2000/svg" version="1.1" xmlns:xlink="http://www.w3.org/1999/xlink" width="144" height="144"><svg id="SvgjsSvg1001" data-name="Layer 1" xmlns="http://www.w3.org/2000/svg" viewBox="0 0 144 144">
  <defs>
    <style>
      .b {
        fill: #c72127;
      }
    </style>
  </defs>
  <rect class="b" x="0" width="144" height="144" rx="21.19" ry="21.19"></rect>
  <g>
    <g>
      <path d="M21.23,31.24c13.52-15.46,10.12-1.8,9.59-.67-3.09,6.59.62,15.93,5.56,14.91,16.07-3.32,18.13,2.03,6.14,13.66-3.17,3.07-12.5-2-16.24-4.69-.78-.56-16.62-9.97-5.05-23.2Z"></path>
      <path d="M122.77,31.2c-13.52-15.46-10.12-1.8-9.59-.67,3.09,6.59-.62,15.93-5.56,14.91-16.07-3.32-18.13,2.03-6.14,13.66,3.17,3.07,12.5-2,16.24-4.69.78-.56,16.62-9.97,5.05-23.2Z"></path>
    </g>
    <g>
      <g>
        <path d="M66.31,78.72c-1.21,2.17,2.72,14.9,3.57,18.01.47.85.5-.84.96-1.03v3.32c0,.06-.55.95-.64,1.05-.14.16-3.75-7.03-4.16-7.28-.81-.49-.76.95-1.09,1.35-1.12,1.34-1.67-.1-2.04-1.04-.94-2.4-1.58-4.81-2.75-7.15-.79-1.59-1.28-2.59-2.75-3.61-1.82-1.26-4.6-2.49-6.21-3.84-.43-.36-1.12-2.42-1.27-2.98-.89-3.32-.93-5.18,3.17-1.47,1.03.94,6.55,5.07,7.58,5.86,1.96,1.48,2.31-1.2,2.47-1.2h3.18Z"></path>
        <path d="M70.99,104.97s.45,2.91.42,3.54c-.13,2.15-.43,10.04-1.71,11.02-1.45,1.11-2.19.51-3.31-.62-3.14-3.15-3.71-9.12-3.47-13.38s1.77-4.16,2.12-.85c.16,1.52.7,11.49,2.91,11.82.55.08,1.48-2.7,1.59-3.22.27-1.38,1.43-8.3,1.46-8.31Z"></path>
        <g>
          <path d="M76.92,78.72c1.21,2.17-2.72,14.9-3.57,18.01-.47.85-.5-.84-.96-1.03v3.32c0,.06.55.95.64,1.05.14.16,3.75-7.03,4.16-7.28.81-.49.76.95,1.09,1.35,1.12,1.34,1.67-.1,2.04-1.04.94-2.4,1.58-4.81,2.75-7.15.79-1.59,1.28-2.59,2.75-3.61,1.82-1.26,4.6-2.49,6.21-3.84.43-.36,1.12-2.42,1.27-2.98.89-3.32.93-5.18-3.17-1.47-1.03.94-6.55,5.07-7.58,5.86-1.96,1.48-2.31-1.2-2.47-1.2h-3.18Z"></path>
          <path d="M72.24,104.97s-.45,2.91-.42,3.54c.13,2.15.43,10.04,1.71,11.02,1.45,1.11,2.19.51,3.31-.62,3.14-3.15,3.71-9.12,3.47-13.38-.25-4.29-1.77-4.16-2.12-.85-.16,1.52-.7,11.49-2.91,11.82-.55.08-1.48-2.7-1.59-3.22-.27-1.38-1.43-8.3-1.46-8.31Z"></path>
        </g>
      </g>
      <path d="M84.5,46.1c4.22,3.94,7.44,8.99,10.69,13.71.94,1.37,4.88,6.23,4.92,7.54.02.66-.85,1.73-1.51,1.86-1.65.34-2.84-1.25-4.74-.5-1.32.52-12.21,8.05-13.19,8.17-.49.06-3.42.05-3.67-.13-.08-.05-.37-1.42-.53-1.77-.51-1.15-8.69-1.38-9.3,0-.18.4-.4,1.62-.47,1.72-.2.29-3.79.25-4.27.01-2.29-1.14-11.13-7.35-12.55-7.96-1.94-.84-3.06.73-4.72.48-.73-.11-1.66-1.17-1.63-1.89.05-1.31,3.98-6.17,4.92-7.54,4.09-5.95,9.4-14.65,16.36-17.31,1.45-.55,3.99-1.28,5.52-1.13.51.05,2.86-.08,4.1,0,3.54.24,7.51,2.35,10.06,4.73Z"></path>
    </g>
  </g>
</svg><style>@media (prefers-color-scheme: light) { :root { filter: none; } }
@media (prefers-color-scheme: dark) { :root { filter: none; } }
</style></svg>