<?xml version="1.0" encoding="UTF-8"?>
<svg id="b" data-name="Layer 2" xmlns="http://www.w3.org/2000/svg" viewBox="0 0 551.68 482.79">
  <g id="c" data-name="Layer 1">
    <g>
      <g>
        <path d="M21.15,36.92c67.85-77.57,50.75-9.02,48.09-3.37-15.53,33.06,3.1,79.91,27.88,74.79,80.64-16.68,90.95,10.2,30.83,68.51-15.89,15.41-62.69-10.06-81.49-23.53-3.91-2.8-83.37-50.03-25.32-116.4Z"/>
        <path d="M530.53,36.72c-67.85-77.57-50.75-9.02-48.09-3.37,15.53,33.06-3.1,79.91-27.88,74.79-80.64-16.68-90.95,10.2-30.83,68.51,15.89,15.41,62.69-10.06,81.49-23.53,3.91-2.8,83.37-50.03,25.32-116.4Z"/>
      </g>
      <g>
        <g>
          <path d="M247.28,275.12c-6.06,10.89,13.67,74.73,17.89,90.35,2.38,4.25,2.51-4.2,4.82-5.17v16.68c0,.31-2.74,4.74-3.23,5.29-.71.79-18.83-35.27-20.89-36.53-4.06-2.48-3.81,4.77-5.49,6.79-5.6,6.72-8.4-.48-10.26-5.23-4.72-12.04-7.93-24.11-13.8-35.88-3.97-7.97-6.44-13.01-13.81-18.13-9.13-6.34-23.1-12.47-31.14-19.25-2.15-1.81-5.6-12.12-6.36-14.94-4.45-16.64-4.66-26.01,15.88-7.36,5.17,4.7,32.85,25.44,38.03,29.4,9.81,7.42,11.61-6,12.39-6h15.97Z"/>
          <path d="M270.75,406.78s2.28,14.6,2.08,17.75c-.68,10.79-2.17,50.37-8.59,55.29-7.27,5.58-10.98,2.56-16.63-3.12-15.74-15.83-18.61-45.75-17.39-67.14,1.24-21.53,8.86-20.89,10.62-4.24.81,7.61,3.53,57.66,14.59,59.3,2.78.41,7.44-13.54,7.96-16.16,1.37-6.91,7.16-41.62,7.34-41.68Z"/>
          <g>
            <path d="M300.53,275.12c6.06,10.89-13.67,74.73-17.89,90.35-2.38,4.25-2.51-4.2-4.82-5.17v16.68c0,.31,2.74,4.74,3.23,5.29.71.79,18.83-35.27,20.89-36.53,4.06-2.48,3.81,4.77,5.49,6.79,5.6,6.72,8.4-.48,10.26-5.23,4.72-12.04,7.93-24.11,13.8-35.88,3.97-7.97,6.44-13.01,13.81-18.13,9.13-6.34,23.1-12.47,31.14-19.25,2.15-1.81,5.6-12.12,6.36-14.94,4.45-16.64,4.66-26.01-15.88-7.36-5.17,4.7-32.85,25.44-38.03,29.4-9.81,7.42-11.61-6-12.39-6h-15.97Z"/>
            <path d="M277.05,406.78s-2.28,14.6-2.08,17.75c.68,10.79,2.17,50.37,8.59,55.29,7.27,5.58,10.98,2.56,16.63-3.12,15.74-15.83,18.61-45.75,17.39-67.14-1.24-21.53-8.86-20.89-10.62-4.24-.81,7.61-3.53,57.66-14.59,59.3-2.78.41-7.44-13.54-7.96-16.16-1.37-6.91-7.16-41.62-7.34-41.68Z"/>
          </g>
        </g>
        <path d="M338.54,111.45c21.2,19.77,37.34,45.08,53.65,68.79,4.71,6.85,24.46,31.23,24.7,37.81.12,3.29-4.26,8.67-7.59,9.35-8.3,1.7-14.25-6.26-23.79-2.49-6.62,2.62-61.23,40.41-66.18,41-2.45.29-17.13.25-18.4-.65-.38-.27-1.87-7.11-2.65-8.86-2.54-5.75-43.62-6.9-46.67,0-.9,2.03-2,8.13-2.36,8.63-1.02,1.43-19.03,1.24-21.41.05-11.47-5.73-55.86-36.9-62.96-39.96-9.75-4.2-15.36,3.66-23.69,2.39-3.68-.56-8.31-5.88-8.18-9.46.24-6.58,19.98-30.96,24.7-37.81,20.54-29.86,47.15-73.49,82.09-86.84,7.26-2.77,20.04-6.4,27.69-5.66,2.54.25,14.37-.41,20.58,0,17.78,1.18,37.7,11.8,50.46,23.71Z"/>
      </g>
    </g>
  </g>
</svg>